<svg xmlns="http://www.w3.org/2000/svg" width="1200" height="360" viewBox="0 0 1200 360"><g><rect x="0" y="84" width="53" height="276" fill="#0f0f19"/><rect x="58" y="115" width="62" height="245" fill="#0f0f19"/><rect x="129" y="189" width="69" height="171" fill="#0f0f19"/><rect x="205" y="90" width="81" height="270" fill="#0f0f19"/><rect x="294" y="67" width="55" height="293" fill="#0f0f19"/><rect x="354" y="53" width="67" height="307" fill="#0f0f19"/><rect x="422" y="70" width="48" height="290" fill="#0f0f19"/><rect x="475" y="183" width="50" height="177" fill="#0f0f19"/><rect x="530" y="183" width="72" height="177" fill="#0f0f19"/><rect x="608" y="99" width="65" height="261" fill="#0f0f19"/><rect x="673" y="181" width="81" height="179" fill="#0f0f19"/><rect x="762" y="125" width="77" height="235" fill="#0f0f19"/><rect x="846" y="156" width="51" height="204" fill="#0f0f19"/><rect x="903" y="160" width="60" height="200" fill="#0f0f19"/><rect x="965" y="60" width="82" height="300" fill="#0f0f19"/><rect x="1053" y="175" width="80" height="185" fill="#0f0f19"/><rect x="1138" y="67" width="74" height="293" fill="#0f0f19"/></g><g><rect x="-10" y="249" width="75" height="111" fill="#0a0a10"/><rect x="83" y="221" width="68" height="139" fill="#0a0a10"/><rect x="161" y="182" width="80" height="178" fill="#0a0a10"/><rect x="255" y="193" width="74" height="167" fill="#0a0a10"/><rect x="339" y="239" width="86" height="121" fill="#0a0a10"/><rect x="444" y="178" width="54" height="182" fill="#0a0a10"/><rect x="514" y="232" width="51" height="128" fill="#0a0a10"/><rect x="575" y="216" width="66" height="144" fill="#0a0a10"/><rect x="652" y="153" width="97" height="207" fill="#0a0a10"/><rect x="764" y="166" width="83" height="194" fill="#0a0a10"/><rect x="858" y="166" width="63" height="194" fill="#0a0a10"/><rect x="939" y="215" width="81" height="145" fill="#0a0a10"/><rect x="1033" y="138" width="63" height="222" fill="#0a0a10"/><rect x="1108" y="143" width="70" height="217" fill="#0a0a10"/><rect x="1191" y="270" width="60" height="90" fill="#0a0a10"/></g><g><rect x="8" y="98" width="6" height="9" fill="#f5b942" opacity="0.78"/><rect x="8" y="118" width="6" height="9" fill="#dc2626" opacity="0.79"/><rect x="8" y="138" width="6" height="9" fill="#f5b942" opacity="0.65"/><rect x="8" y="158" width="6" height="9" fill="#dc2626" opacity="0.65"/><rect x="8" y="198" width="6" height="9" fill="#dc2626" opacity="0.80"/><rect x="8" y="218" width="6" height="9" fill="#f5b942" opacity="0.71"/><rect x="8" y="258" width="6" height="9" fill="#ffd97a" opacity="0.64"/><rect x="8" y="278" width="6" height="9" fill="#f5b942" opacity="0.72"/><rect x="8" y="318" width="6" height="9" fill="#f5b942" opacity="0.60"/><rect x="24" y="98" width="6" height="9" fill="#f5b942" opacity="0.35"/><rect x="24" y="178" width="6" height="9" fill="#ffd97a" opacity="0.76"/><rect x="24" y="198" width="6" height="9" fill="#f5b942" opacity="0.42"/><rect x="24" y="218" width="6" height="9" fill="#f5b942" opacity="0.56"/><rect x="24" y="238" width="6" height="9" fill="#f5b942" opacity="0.37"/><rect x="24" y="298" width="6" height="9" fill="#dc2626" opacity="0.59"/><rect x="24" y="318" width="6" height="9" fill="#f5b942" opacity="0.43"/><rect x="66" y="189" width="6" height="9" fill="#f5b942" opacity="0.45"/><rect x="66" y="209" width="6" height="9" fill="#f5b942" opacity="0.44"/><rect x="66" y="229" width="6" height="9" fill="#f5b942" opacity="0.50"/><rect x="66" y="249" width="6" height="9" fill="#f5b942" opacity="0.81"/><rect x="66" y="269" width="6" height="9" fill="#f5b942" opacity="0.43"/><rect x="66" y="309" width="6" height="9" fill="#f5b942" opacity="0.54"/><rect x="66" y="329" width="6" height="9" fill="#ffd97a" opacity="0.84"/><rect x="82" y="149" width="6" height="9" fill="#ffd97a" opacity="0.92"/><rect x="82" y="229" width="6" height="9" fill="#f5b942" opacity="0.54"/><rect x="82" y="289" width="6" height="9" fill="#ffd97a" opacity="0.68"/><rect x="82" y="309" width="6" height="9" fill="#f5b942" opacity="0.63"/><rect x="82" y="329" width="6" height="9" fill="#f5b942" opacity="0.80"/><rect x="98" y="129" width="6" height="9" fill="#f5b942" opacity="0.80"/><rect x="98" y="209" width="6" height="9" fill="#f5b942" opacity="0.84"/><rect x="98" y="229" width="6" height="9" fill="#f5b942" opacity="0.73"/><rect x="98" y="249" width="6" height="9" fill="#f5b942" opacity="0.46"/><rect x="98" y="289" width="6" height="9" fill="#f5b942" opacity="0.64"/><rect x="98" y="309" width="6" height="9" fill="#dc2626" opacity="0.81"/><rect x="98" y="329" width="6" height="9" fill="#ffd97a" opacity="0.62"/><rect x="137" y="203" width="6" height="9" fill="#dc2626" opacity="0.79"/><rect x="137" y="243" width="6" height="9" fill="#f5b942" opacity="0.42"/><rect x="137" y="303" width="6" height="9" fill="#f5b942" opacity="0.68"/><rect x="137" y="323" width="6" height="9" fill="#f5b942" opacity="0.44"/><rect x="153" y="223" width="6" height="9" fill="#f5b942" opacity="0.71"/><rect x="153" y="243" width="6" height="9" fill="#f5b942" opacity="0.63"/><rect x="153" y="303" width="6" height="9" fill="#f5b942" opacity="0.81"/><rect x="153" y="323" width="6" height="9" fill="#f5b942" opacity="0.66"/><rect x="169" y="203" width="6" height="9" fill="#ffd97a" opacity="0.90"/><rect x="169" y="263" width="6" height="9" fill="#f5b942" opacity="0.48"/><rect x="169" y="283" width="6" height="9" fill="#f5b942" opacity="0.37"/><rect x="169" y="303" width="6" height="9" fill="#f5b942" opacity="0.39"/><rect x="169" y="323" width="6" height="9" fill="#f5b942" opacity="0.39"/><rect x="213" y="104" width="6" height="9" fill="#f5b942" opacity="0.48"/><rect x="213" y="124" width="6" height="9" fill="#f5b942" opacity="0.39"/><rect x="213" y="164" width="6" height="9" fill="#f5b942" opacity="0.46"/><rect x="213" y="184" width="6" height="9" fill="#f5b942" opacity="0.82"/><rect x="213" y="204" width="6" height="9" fill="#f5b942" opacity="0.46"/><rect x="213" y="244" width="6" height="9" fill="#f5b942" opacity="0.57"/><rect x="213" y="264" width="6" height="9" fill="#dc2626" opacity="0.87"/><rect x="213" y="284" width="6" height="9" fill="#f5b942" opacity="0.80"/><rect x="213" y="304" width="6" height="9" fill="#f5b942" opacity="0.45"/><rect x="229" y="124" width="6" height="9" fill="#f5b942" opacity="0.44"/><rect x="229" y="144" width="6" height="9" fill="#ffd97a" opacity="0.76"/><rect x="229" y="164" width="6" height="9" fill="#f5b942" opacity="0.36"/><rect x="229" y="224" width="6" height="9" fill="#f5b942" opacity="0.58"/><rect x="229" y="244" width="6" height="9" fill="#ffd97a" opacity="0.77"/><rect x="229" y="304" width="6" height="9" fill="#f5b942" opacity="0.61"/><rect x="229" y="324" width="6" height="9" fill="#f5b942" opacity="0.40"/><rect x="245" y="104" width="6" height="9" fill="#f5b942" opacity="0.58"/><rect x="245" y="124" width="6" height="9" fill="#f5b942" opacity="0.41"/><rect x="245" y="204" width="6" height="9" fill="#f5b942" opacity="0.47"/><rect x="245" y="224" width="6" height="9" fill="#f5b942" opacity="0.85"/><rect x="245" y="244" width="6" height="9" fill="#dc2626" opacity="0.54"/><rect x="245" y="264" width="6" height="9" fill="#f5b942" opacity="0.73"/><rect x="245" y="284" width="6" height="9" fill="#f5b942" opacity="0.42"/><rect x="261" y="104" width="6" height="9" fill="#dc2626" opacity="0.71"/><rect x="261" y="124" width="6" height="9" fill="#f5b942" opacity="0.82"/><rect x="261" y="164" width="6" height="9" fill="#f5b942" opacity="0.39"/><rect x="261" y="184" width="6" height="9" fill="#f5b942" opacity="0.61"/><rect x="261" y="204" width="6" height="9" fill="#ffd97a" opacity="0.90"/><rect x="261" y="224" width="6" height="9" fill="#f5b942" opacity="0.40"/><rect x="261" y="244" width="6" height="9" fill="#f5b942" opacity="0.62"/><rect x="302" y="81" width="6" height="9" fill="#ffd97a" opacity="0.80"/><rect x="302" y="101" width="6" height="9" fill="#f5b942" opacity="0.66"/><rect x="302" y="121" width="6" height="9" fill="#f5b942" opacity="0.62"/><rect x="302" y="141" width="6" height="9" fill="#ffd97a" opacity="0.92"/><rect x="302" y="181" width="6" height="9" fill="#f5b942" opacity="0.63"/><rect x="302" y="201" width="6" height="9" fill="#f5b942" opacity="0.82"/><rect x="302" y="221" width="6" height="9" fill="#f5b942" opacity="0.55"/><rect x="302" y="241" width="6" height="9" fill="#f5b942" opacity="0.61"/><rect x="302" y="261" width="6" height="9" fill="#f5b942" opacity="0.58"/><rect x="302" y="301" width="6" height="9" fill="#ffd97a" opacity="0.89"/><rect x="302" y="321" width="6" height="9" fill="#f5b942" opacity="0.42"/><rect x="318" y="81" width="6" height="9" fill="#f5b942" opacity="0.75"/><rect x="318" y="101" width="6" height="9" fill="#f5b942" opacity="0.53"/><rect x="318" y="141" width="6" height="9" fill="#f5b942" opacity="0.61"/><rect x="318" y="181" width="6" height="9" fill="#ffd97a" opacity="0.81"/><rect x="318" y="201" width="6" height="9" fill="#f5b942" opacity="0.66"/><rect x="318" y="221" width="6" height="9" fill="#f5b942" opacity="0.39"/><rect x="318" y="261" width="6" height="9" fill="#f5b942" opacity="0.80"/><rect x="318" y="281" width="6" height="9" fill="#dc2626" opacity="0.50"/><rect x="318" y="301" width="6" height="9" fill="#f5b942" opacity="0.43"/><rect x="318" y="321" width="6" height="9" fill="#dc2626" opacity="0.55"/><rect x="362" y="87" width="6" height="9" fill="#f5b942" opacity="0.55"/><rect x="362" y="167" width="6" height="9" fill="#f5b942" opacity="0.48"/><rect x="362" y="187" width="6" height="9" fill="#f5b942" opacity="0.47"/><rect x="362" y="207" width="6" height="9" fill="#f5b942" opacity="0.60"/><rect x="362" y="247" width="6" height="9" fill="#f5b942" opacity="0.56"/><rect x="362" y="267" width="6" height="9" fill="#f5b942" opacity="0.75"/><rect x="362" y="287" width="6" height="9" fill="#f5b942" opacity="0.66"/><rect x="362" y="327" width="6" height="9" fill="#f5b942" opacity="0.65"/><rect x="378" y="67" width="6" height="9" fill="#f5b942" opacity="0.80"/><rect x="378" y="87" width="6" height="9" fill="#f5b942" opacity="0.85"/><rect x="378" y="107" width="6" height="9" fill="#f5b942" opacity="0.63"/><rect x="378" y="127" width="6" height="9" fill="#f5b942" opacity="0.49"/><rect x="378" y="147" width="6" height="9" fill="#dc2626" opacity="0.71"/><rect x="378" y="187" width="6" height="9" fill="#f5b942" opacity="0.45"/><rect x="378" y="207" width="6" height="9" fill="#f5b942" opacity="0.64"/><rect x="378" y="227" width="6" height="9" fill="#f5b942" opacity="0.56"/><rect x="378" y="267" width="6" height="9" fill="#f5b942" opacity="0.41"/><rect x="378" y="307" width="6" height="9" fill="#f5b942" opacity="0.50"/><rect x="378" y="327" width="6" height="9" fill="#f5b942" opacity="0.58"/><rect x="394" y="107" width="6" height="9" fill="#f5b942" opacity="0.79"/><rect x="394" y="127" width="6" height="9" fill="#ffd97a" opacity="0.80"/><rect x="394" y="167" width="6" height="9" fill="#f5b942" opacity="0.68"/><rect x="394" y="187" width="6" height="9" fill="#f5b942" opacity="0.76"/><rect x="394" y="207" width="6" height="9" fill="#f5b942" opacity="0.50"/><rect x="394" y="227" width="6" height="9" fill="#f5b942" opacity="0.54"/><rect x="394" y="287" width="6" height="9" fill="#f5b942" opacity="0.43"/><rect x="394" y="307" width="6" height="9" fill="#f5b942" opacity="0.40"/><rect x="394" y="327" width="6" height="9" fill="#f5b942" opacity="0.67"/><rect x="430" y="104" width="6" height="9" fill="#f5b942" opacity="0.61"/><rect x="430" y="124" width="6" height="9" fill="#f5b942" opacity="0.47"/><rect x="430" y="144" width="6" height="9" fill="#f5b942" opacity="0.61"/><rect x="430" y="164" width="6" height="9" fill="#ffd97a" opacity="0.79"/><rect x="430" y="184" width="6" height="9" fill="#f5b942" opacity="0.40"/><rect x="430" y="204" width="6" height="9" fill="#f5b942" opacity="0.62"/><rect x="430" y="244" width="6" height="9" fill="#f5b942" opacity="0.72"/><rect x="430" y="304" width="6" height="9" fill="#dc2626" opacity="0.90"/><rect x="446" y="104" width="6" height="9" fill="#f5b942" opacity="0.75"/><rect x="446" y="144" width="6" height="9" fill="#f5b942" opacity="0.69"/><rect x="446" y="164" width="6" height="9" fill="#ffd97a" opacity="0.91"/><rect x="446" y="224" width="6" height="9" fill="#f5b942" opacity="0.56"/><rect x="446" y="244" width="6" height="9" fill="#f5b942" opacity="0.38"/><rect x="446" y="284" width="6" height="9" fill="#f5b942" opacity="0.49"/><rect x="446" y="304" width="6" height="9" fill="#dc2626" opacity="0.56"/><rect x="483" y="237" width="6" height="9" fill="#ffd97a" opacity="0.69"/><rect x="483" y="257" width="6" height="9" fill="#f5b942" opacity="0.38"/><rect x="483" y="297" width="6" height="9" fill="#ffd97a" opacity="0.60"/><rect x="483" y="317" width="6" height="9" fill="#f5b942" opacity="0.38"/><rect x="499" y="197" width="6" height="9" fill="#f5b942" opacity="0.79"/><rect x="499" y="237" width="6" height="9" fill="#f5b942" opacity="0.41"/><rect x="499" y="257" width="6" height="9" fill="#f5b942" opacity="0.39"/><rect x="499" y="277" width="6" height="9" fill="#f5b942" opacity="0.46"/><rect x="499" y="297" width="6" height="9" fill="#f5b942" opacity="0.79"/><rect x="538" y="217" width="6" height="9" fill="#f5b942" opacity="0.39"/><rect x="538" y="237" width="6" height="9" fill="#f5b942" opacity="0.74"/><rect x="538" y="257" width="6" height="9" fill="#f5b942" opacity="0.51"/><rect x="538" y="277" width="6" height="9" fill="#f5b942" opacity="0.72"/><rect x="554" y="217" width="6" height="9" fill="#f5b942" opacity="0.39"/><rect x="554" y="237" width="6" height="9" fill="#f5b942" opacity="0.77"/><rect x="554" y="317" width="6" height="9" fill="#f5b942" opacity="0.57"/><rect x="570" y="237" width="6" height="9" fill="#f5b942" opacity="0.55"/><rect x="570" y="257" width="6" height="9" fill="#ffd97a" opacity="0.89"/><rect x="570" y="277" width="6" height="9" fill="#f5b942" opacity="0.41"/><rect x="570" y="297" width="6" height="9" fill="#f5b942" opacity="0.47"/><rect x="570" y="317" width="6" height="9" fill="#f5b942" opacity="0.63"/><rect x="616" y="113" width="6" height="9" fill="#dc2626" opacity="0.71"/><rect x="616" y="153" width="6" height="9" fill="#f5b942" opacity="0.68"/><rect x="616" y="173" width="6" height="9" fill="#f5b942" opacity="0.49"/><rect x="616" y="213" width="6" height="9" fill="#f5b942" opacity="0.64"/><rect x="616" y="253" width="6" height="9" fill="#f5b942" opacity="0.80"/><rect x="616" y="293" width="6" height="9" fill="#f5b942" opacity="0.83"/><rect x="632" y="113" width="6" height="9" fill="#f5b942" opacity="0.69"/><rect x="632" y="153" width="6" height="9" fill="#f5b942" opacity="0.53"/><rect x="632" y="173" width="6" height="9" fill="#ffd97a" opacity="0.90"/><rect x="632" y="233" width="6" height="9" fill="#f5b942" opacity="0.55"/><rect x="632" y="253" width="6" height="9" fill="#f5b942" opacity="0.82"/><rect x="632" y="273" width="6" height="9" fill="#f5b942" opacity="0.66"/><rect x="632" y="313" width="6" height="9" fill="#f5b942" opacity="0.55"/><rect x="648" y="113" width="6" height="9" fill="#dc2626" opacity="0.52"/><rect x="648" y="153" width="6" height="9" fill="#dc2626" opacity="0.56"/><rect x="648" y="173" width="6" height="9" fill="#f5b942" opacity="0.78"/><rect x="648" y="213" width="6" height="9" fill="#f5b942" opacity="0.75"/><rect x="648" y="233" width="6" height="9" fill="#f5b942" opacity="0.66"/><rect x="648" y="293" width="6" height="9" fill="#f5b942" opacity="0.36"/><rect x="681" y="195" width="6" height="9" fill="#dc2626" opacity="0.64"/><rect x="681" y="215" width="6" height="9" fill="#f5b942" opacity="0.74"/><rect x="681" y="235" width="6" height="9" fill="#f5b942" opacity="0.61"/><rect x="681" y="275" width="6" height="9" fill="#ffd97a" opacity="0.87"/><rect x="681" y="315" width="6" height="9" fill="#f5b942" opacity="0.70"/><rect x="697" y="195" width="6" height="9" fill="#ffd97a" opacity="0.67"/><rect x="697" y="215" width="6" height="9" fill="#f5b942" opacity="0.64"/><rect x="697" y="235" width="6" height="9" fill="#f5b942" opacity="0.35"/><rect x="697" y="255" width="6" height="9" fill="#f5b942" opacity="0.83"/><rect x="697" y="275" width="6" height="9" fill="#f5b942" opacity="0.76"/><rect x="697" y="315" width="6" height="9" fill="#f5b942" opacity="0.70"/><rect x="713" y="195" width="6" height="9" fill="#f5b942" opacity="0.53"/><rect x="713" y="215" width="6" height="9" fill="#f5b942" opacity="0.76"/><rect x="713" y="255" width="6" height="9" fill="#dc2626" opacity="0.64"/><rect x="713" y="275" width="6" height="9" fill="#f5b942" opacity="0.65"/><rect x="729" y="215" width="6" height="9" fill="#ffd97a" opacity="0.81"/><rect x="729" y="235" width="6" height="9" fill="#f5b942" opacity="0.55"/><rect x="729" y="255" width="6" height="9" fill="#f5b942" opacity="0.44"/><rect x="729" y="275" width="6" height="9" fill="#f5b942" opacity="0.60"/><rect x="770" y="139" width="6" height="9" fill="#f5b942" opacity="0.40"/><rect x="770" y="159" width="6" height="9" fill="#f5b942" opacity="0.77"/><rect x="770" y="179" width="6" height="9" fill="#ffd97a" opacity="0.68"/><rect x="770" y="199" width="6" height="9" fill="#f5b942" opacity="0.48"/><rect x="770" y="219" width="6" height="9" fill="#ffd97a" opacity="0.90"/><rect x="770" y="239" width="6" height="9" fill="#f5b942" opacity="0.46"/><rect x="770" y="259" width="6" height="9" fill="#f5b942" opacity="0.54"/><rect x="770" y="279" width="6" height="9" fill="#f5b942" opacity="0.77"/><rect x="770" y="299" width="6" height="9" fill="#f5b942" opacity="0.82"/><rect x="770" y="319" width="6" height="9" fill="#f5b942" opacity="0.74"/><rect x="786" y="139" width="6" height="9" fill="#f5b942" opacity="0.64"/><rect x="786" y="159" width="6" height="9" fill="#dc2626" opacity="0.67"/><rect x="786" y="179" width="6" height="9" fill="#f5b942" opacity="0.65"/><rect x="786" y="219" width="6" height="9" fill="#f5b942" opacity="0.68"/><rect x="786" y="239" width="6" height="9" fill="#f5b942" opacity="0.84"/><rect x="786" y="279" width="6" height="9" fill="#f5b942" opacity="0.58"/><rect x="786" y="299" width="6" height="9" fill="#f5b942" opacity="0.63"/><rect x="802" y="159" width="6" height="9" fill="#f5b942" opacity="0.63"/><rect x="802" y="179" width="6" height="9" fill="#ffd97a" opacity="0.86"/><rect x="802" y="239" width="6" height="9" fill="#dc2626" opacity="0.68"/><rect x="802" y="259" width="6" height="9" fill="#f5b942" opacity="0.84"/><rect x="802" y="279" width="6" height="9" fill="#f5b942" opacity="0.59"/><rect x="802" y="299" width="6" height="9" fill="#dc2626" opacity="0.75"/><rect x="802" y="319" width="6" height="9" fill="#dc2626" opacity="0.79"/><rect x="854" y="190" width="6" height="9" fill="#f5b942" opacity="0.75"/><rect x="854" y="210" width="6" height="9" fill="#f5b942" opacity="0.55"/><rect x="854" y="230" width="6" height="9" fill="#f5b942" opacity="0.75"/><rect x="854" y="270" width="6" height="9" fill="#f5b942" opacity="0.64"/><rect x="854" y="290" width="6" height="9" fill="#f5b942" opacity="0.52"/><rect x="854" y="310" width="6" height="9" fill="#f5b942" opacity="0.60"/><rect x="854" y="330" width="6" height="9" fill="#f5b942" opacity="0.65"/><rect x="870" y="170" width="6" height="9" fill="#f5b942" opacity="0.53"/><rect x="870" y="190" width="6" height="9" fill="#f5b942" opacity="0.72"/><rect x="870" y="210" width="6" height="9" fill="#ffd97a" opacity="0.76"/><rect x="870" y="230" width="6" height="9" fill="#f5b942" opacity="0.37"/><rect x="870" y="250" width="6" height="9" fill="#f5b942" opacity="0.44"/><rect x="870" y="270" width="6" height="9" fill="#f5b942" opacity="0.42"/><rect x="870" y="290" width="6" height="9" fill="#f5b942" opacity="0.57"/><rect x="870" y="330" width="6" height="9" fill="#f5b942" opacity="0.40"/><rect x="911" y="214" width="6" height="9" fill="#dc2626" opacity="0.56"/><rect x="911" y="254" width="6" height="9" fill="#ffd97a" opacity="0.90"/><rect x="911" y="274" width="6" height="9" fill="#f5b942" opacity="0.42"/><rect x="911" y="314" width="6" height="9" fill="#f5b942" opacity="0.70"/><rect x="927" y="194" width="6" height="9" fill="#f5b942" opacity="0.76"/><rect x="927" y="214" width="6" height="9" fill="#f5b942" opacity="0.72"/><rect x="927" y="234" width="6" height="9" fill="#f5b942" opacity="0.80"/><rect x="927" y="254" width="6" height="9" fill="#f5b942" opacity="0.81"/><rect x="927" y="274" width="6" height="9" fill="#f5b942" opacity="0.61"/><rect x="927" y="294" width="6" height="9" fill="#f5b942" opacity="0.74"/><rect x="927" y="314" width="6" height="9" fill="#f5b942" opacity="0.55"/><rect x="973" y="74" width="6" height="9" fill="#f5b942" opacity="0.77"/><rect x="973" y="94" width="6" height="9" fill="#f5b942" opacity="0.69"/><rect x="973" y="134" width="6" height="9" fill="#f5b942" opacity="0.54"/><rect x="973" y="154" width="6" height="9" fill="#f5b942" opacity="0.47"/><rect x="973" y="174" width="6" height="9" fill="#dc2626" opacity="0.74"/><rect x="973" y="194" width="6" height="9" fill="#f5b942" opacity="0.49"/><rect x="973" y="214" width="6" height="9" fill="#f5b942" opacity="0.47"/><rect x="973" y="234" width="6" height="9" fill="#f5b942" opacity="0.47"/><rect x="973" y="254" width="6" height="9" fill="#f5b942" opacity="0.49"/><rect x="973" y="294" width="6" height="9" fill="#ffd97a" opacity="0.69"/><rect x="989" y="74" width="6" height="9" fill="#f5b942" opacity="0.69"/><rect x="989" y="94" width="6" height="9" fill="#f5b942" opacity="0.45"/><rect x="989" y="114" width="6" height="9" fill="#f5b942" opacity="0.74"/><rect x="989" y="134" width="6" height="9" fill="#f5b942" opacity="0.51"/><rect x="989" y="154" width="6" height="9" fill="#f5b942" opacity="0.52"/><rect x="989" y="194" width="6" height="9" fill="#f5b942" opacity="0.56"/><rect x="989" y="214" width="6" height="9" fill="#f5b942" opacity="0.48"/><rect x="989" y="234" width="6" height="9" fill="#f5b942" opacity="0.38"/><rect x="989" y="294" width="6" height="9" fill="#f5b942" opacity="0.52"/><rect x="1005" y="74" width="6" height="9" fill="#f5b942" opacity="0.74"/><rect x="1005" y="94" width="6" height="9" fill="#f5b942" opacity="0.53"/><rect x="1005" y="134" width="6" height="9" fill="#f5b942" opacity="0.72"/><rect x="1005" y="174" width="6" height="9" fill="#f5b942" opacity="0.69"/><rect x="1005" y="194" width="6" height="9" fill="#f5b942" opacity="0.73"/><rect x="1005" y="214" width="6" height="9" fill="#f5b942" opacity="0.55"/><rect x="1005" y="234" width="6" height="9" fill="#f5b942" opacity="0.47"/><rect x="1005" y="254" width="6" height="9" fill="#f5b942" opacity="0.65"/><rect x="1005" y="274" width="6" height="9" fill="#dc2626" opacity="0.64"/><rect x="1005" y="294" width="6" height="9" fill="#f5b942" opacity="0.81"/><rect x="1005" y="314" width="6" height="9" fill="#f5b942" opacity="0.62"/><rect x="1021" y="134" width="6" height="9" fill="#f5b942" opacity="0.48"/><rect x="1021" y="154" width="6" height="9" fill="#f5b942" opacity="0.68"/><rect x="1021" y="174" width="6" height="9" fill="#ffd97a" opacity="0.95"/><rect x="1021" y="194" width="6" height="9" fill="#f5b942" opacity="0.79"/><rect x="1021" y="214" width="6" height="9" fill="#ffd97a" opacity="0.61"/><rect x="1021" y="254" width="6" height="9" fill="#dc2626" opacity="0.65"/><rect x="1021" y="274" width="6" height="9" fill="#ffd97a" opacity="0.94"/><rect x="1021" y="294" width="6" height="9" fill="#f5b942" opacity="0.45"/><rect x="1061" y="189" width="6" height="9" fill="#f5b942" opacity="0.80"/><rect x="1061" y="209" width="6" height="9" fill="#f5b942" opacity="0.69"/><rect x="1061" y="229" width="6" height="9" fill="#f5b942" opacity="0.51"/><rect x="1061" y="249" width="6" height="9" fill="#dc2626" opacity="0.74"/><rect x="1061" y="269" width="6" height="9" fill="#f5b942" opacity="0.64"/><rect x="1061" y="309" width="6" height="9" fill="#f5b942" opacity="0.45"/><rect x="1061" y="329" width="6" height="9" fill="#f5b942" opacity="0.61"/><rect x="1077" y="189" width="6" height="9" fill="#f5b942" opacity="0.57"/><rect x="1077" y="209" width="6" height="9" fill="#ffd97a" opacity="0.86"/><rect x="1077" y="229" width="6" height="9" fill="#f5b942" opacity="0.51"/><rect x="1077" y="249" width="6" height="9" fill="#ffd97a" opacity="0.90"/><rect x="1077" y="289" width="6" height="9" fill="#f5b942" opacity="0.47"/><rect x="1077" y="329" width="6" height="9" fill="#f5b942" opacity="0.52"/><rect x="1093" y="189" width="6" height="9" fill="#f5b942" opacity="0.62"/><rect x="1093" y="209" width="6" height="9" fill="#ffd97a" opacity="0.61"/><rect x="1093" y="229" width="6" height="9" fill="#f5b942" opacity="0.76"/><rect x="1093" y="309" width="6" height="9" fill="#dc2626" opacity="0.53"/><rect x="1093" y="329" width="6" height="9" fill="#f5b942" opacity="0.77"/><rect x="1109" y="189" width="6" height="9" fill="#f5b942" opacity="0.40"/><rect x="1109" y="229" width="6" height="9" fill="#f5b942" opacity="0.44"/><rect x="1109" y="269" width="6" height="9" fill="#f5b942" opacity="0.85"/><rect x="1109" y="289" width="6" height="9" fill="#f5b942" opacity="0.79"/><rect x="1109" y="309" width="6" height="9" fill="#f5b942" opacity="0.71"/><rect x="1109" y="329" width="6" height="9" fill="#f5b942" opacity="0.76"/><rect x="1146" y="81" width="6" height="9" fill="#f5b942" opacity="0.44"/><rect x="1146" y="121" width="6" height="9" fill="#f5b942" opacity="0.83"/><rect x="1146" y="141" width="6" height="9" fill="#f5b942" opacity="0.78"/><rect x="1146" y="161" width="6" height="9" fill="#f5b942" opacity="0.36"/><rect x="1146" y="181" width="6" height="9" fill="#f5b942" opacity="0.78"/><rect x="1146" y="201" width="6" height="9" fill="#f5b942" opacity="0.63"/><rect x="1146" y="221" width="6" height="9" fill="#f5b942" opacity="0.47"/><rect x="1146" y="241" width="6" height="9" fill="#f5b942" opacity="0.65"/><rect x="1146" y="281" width="6" height="9" fill="#f5b942" opacity="0.75"/><rect x="1146" y="321" width="6" height="9" fill="#f5b942" opacity="0.56"/><rect x="1162" y="81" width="6" height="9" fill="#f5b942" opacity="0.60"/><rect x="1162" y="121" width="6" height="9" fill="#f5b942" opacity="0.43"/><rect x="1162" y="141" width="6" height="9" fill="#f5b942" opacity="0.65"/><rect x="1162" y="161" width="6" height="9" fill="#f5b942" opacity="0.81"/><rect x="1162" y="181" width="6" height="9" fill="#f5b942" opacity="0.42"/><rect x="1162" y="201" width="6" height="9" fill="#f5b942" opacity="0.51"/><rect x="1162" y="221" width="6" height="9" fill="#f5b942" opacity="0.60"/><rect x="1162" y="241" width="6" height="9" fill="#dc2626" opacity="0.70"/><rect x="1162" y="281" width="6" height="9" fill="#f5b942" opacity="0.84"/><rect x="1162" y="301" width="6" height="9" fill="#f5b942" opacity="0.50"/><rect x="1178" y="81" width="6" height="9" fill="#f5b942" opacity="0.50"/><rect x="1178" y="101" width="6" height="9" fill="#f5b942" opacity="0.42"/><rect x="1178" y="121" width="6" height="9" fill="#f5b942" opacity="0.43"/><rect x="1178" y="141" width="6" height="9" fill="#f5b942" opacity="0.50"/><rect x="1178" y="201" width="6" height="9" fill="#f5b942" opacity="0.71"/><rect x="1178" y="221" width="6" height="9" fill="#f5b942" opacity="0.68"/><rect x="1178" y="241" width="6" height="9" fill="#f5b942" opacity="0.80"/><rect x="1178" y="281" width="6" height="9" fill="#f5b942" opacity="0.49"/><rect x="1178" y="301" width="6" height="9" fill="#f5b942" opacity="0.52"/><rect x="1178" y="321" width="6" height="9" fill="#f5b942" opacity="0.61"/><rect x="-2" y="263" width="6" height="9" fill="#dc2626" opacity="0.71"/><rect x="-2" y="283" width="6" height="9" fill="#dc2626" opacity="0.86"/><rect x="-2" y="303" width="6" height="9" fill="#ffd97a" opacity="0.71"/><rect x="-2" y="323" width="6" height="9" fill="#f5b942" opacity="0.45"/><rect x="14" y="263" width="6" height="9" fill="#f5b942" opacity="0.38"/><rect x="14" y="283" width="6" height="9" fill="#f5b942" opacity="0.52"/><rect x="14" y="303" width="6" height="9" fill="#f5b942" opacity="0.51"/><rect x="14" y="323" width="6" height="9" fill="#f5b942" opacity="0.76"/><rect x="30" y="283" width="6" height="9" fill="#f5b942" opacity="0.52"/><rect x="30" y="323" width="6" height="9" fill="#f5b942" opacity="0.36"/><rect x="91" y="235" width="6" height="9" fill="#dc2626" opacity="0.87"/><rect x="91" y="275" width="6" height="9" fill="#f5b942" opacity="0.69"/><rect x="91" y="295" width="6" height="9" fill="#f5b942" opacity="0.35"/><rect x="91" y="315" width="6" height="9" fill="#dc2626" opacity="0.76"/><rect x="107" y="255" width="6" height="9" fill="#dc2626" opacity="0.82"/><rect x="107" y="275" width="6" height="9" fill="#f5b942" opacity="0.51"/><rect x="107" y="295" width="6" height="9" fill="#f5b942" opacity="0.67"/><rect x="123" y="275" width="6" height="9" fill="#ffd97a" opacity="0.79"/><rect x="123" y="295" width="6" height="9" fill="#f5b942" opacity="0.72"/><rect x="123" y="315" width="6" height="9" fill="#ffd97a" opacity="0.78"/><rect x="169" y="216" width="6" height="9" fill="#f5b942" opacity="0.45"/><rect x="169" y="296" width="6" height="9" fill="#f5b942" opacity="0.61"/><rect x="185" y="196" width="6" height="9" fill="#f5b942" opacity="0.40"/><rect x="185" y="216" width="6" height="9" fill="#f5b942" opacity="0.68"/><rect x="185" y="236" width="6" height="9" fill="#dc2626" opacity="0.69"/><rect x="185" y="256" width="6" height="9" fill="#f5b942" opacity="0.57"/><rect x="185" y="276" width="6" height="9" fill="#f5b942" opacity="0.41"/><rect x="185" y="296" width="6" height="9" fill="#f5b942" opacity="0.56"/><rect x="185" y="316" width="6" height="9" fill="#f5b942" opacity="0.73"/><rect x="201" y="196" width="6" height="9" fill="#dc2626" opacity="0.62"/><rect x="201" y="216" width="6" height="9" fill="#ffd97a" opacity="0.84"/><rect x="201" y="236" width="6" height="9" fill="#f5b942" opacity="0.49"/><rect x="201" y="276" width="6" height="9" fill="#f5b942" opacity="0.79"/><rect x="201" y="296" width="6" height="9" fill="#f5b942" opacity="0.49"/><rect x="201" y="316" width="6" height="9" fill="#ffd97a" opacity="0.80"/><rect x="217" y="196" width="6" height="9" fill="#ffd97a" opacity="0.91"/><rect x="217" y="236" width="6" height="9" fill="#f5b942" opacity="0.57"/><rect x="217" y="256" width="6" height="9" fill="#f5b942" opacity="0.50"/><rect x="217" y="276" width="6" height="9" fill="#f5b942" opacity="0.81"/><rect x="217" y="296" width="6" height="9" fill="#f5b942" opacity="0.65"/><rect x="263" y="227" width="6" height="9" fill="#f5b942" opacity="0.51"/><rect x="263" y="247" width="6" height="9" fill="#f5b942" opacity="0.46"/><rect x="263" y="287" width="6" height="9" fill="#f5b942" opacity="0.75"/><rect x="263" y="307" width="6" height="9" fill="#f5b942" opacity="0.67"/><rect x="263" y="327" width="6" height="9" fill="#f5b942" opacity="0.42"/><rect x="279" y="207" width="6" height="9" fill="#f5b942" opacity="0.40"/><rect x="279" y="227" width="6" height="9" fill="#f5b942" opacity="0.74"/><rect x="279" y="267" width="6" height="9" fill="#f5b942" opacity="0.56"/><rect x="279" y="287" width="6" height="9" fill="#ffd97a" opacity="0.68"/><rect x="279" y="307" width="6" height="9" fill="#ffd97a" opacity="0.92"/><rect x="279" y="327" width="6" height="9" fill="#f5b942" opacity="0.78"/><rect x="295" y="207" width="6" height="9" fill="#f5b942" opacity="0.36"/><rect x="295" y="227" width="6" height="9" fill="#ffd97a" opacity="0.87"/><rect x="295" y="327" width="6" height="9" fill="#f5b942" opacity="0.80"/><rect x="347" y="273" width="6" height="9" fill="#f5b942" opacity="0.65"/><rect x="347" y="293" width="6" height="9" fill="#f5b942" opacity="0.57"/><rect x="347" y="313" width="6" height="9" fill="#f5b942" opacity="0.49"/><rect x="363" y="273" width="6" height="9" fill="#dc2626" opacity="0.63"/><rect x="363" y="313" width="6" height="9" fill="#f5b942" opacity="0.76"/><rect x="379" y="253" width="6" height="9" fill="#f5b942" opacity="0.71"/><rect x="379" y="293" width="6" height="9" fill="#f5b942" opacity="0.60"/><rect x="379" y="313" width="6" height="9" fill="#dc2626" opacity="0.83"/><rect x="395" y="273" width="6" height="9" fill="#f5b942" opacity="0.58"/><rect x="395" y="293" width="6" height="9" fill="#f5b942" opacity="0.84"/><rect x="395" y="313" width="6" height="9" fill="#dc2626" opacity="0.50"/><rect x="452" y="192" width="6" height="9" fill="#f5b942" opacity="0.79"/><rect x="452" y="212" width="6" height="9" fill="#f5b942" opacity="0.53"/><rect x="452" y="252" width="6" height="9" fill="#dc2626" opacity="0.78"/><rect x="452" y="272" width="6" height="9" fill="#f5b942" opacity="0.45"/><rect x="452" y="292" width="6" height="9" fill="#f5b942" opacity="0.70"/><rect x="452" y="312" width="6" height="9" fill="#dc2626" opacity="0.66"/><rect x="468" y="192" width="6" height="9" fill="#f5b942" opacity="0.80"/><rect x="468" y="212" width="6" height="9" fill="#ffd97a" opacity="0.78"/><rect x="468" y="252" width="6" height="9" fill="#dc2626" opacity="0.69"/><rect x="468" y="272" width="6" height="9" fill="#f5b942" opacity="0.42"/><rect x="468" y="292" width="6" height="9" fill="#f5b942" opacity="0.81"/><rect x="468" y="312" width="6" height="9" fill="#ffd97a" opacity="0.87"/><rect x="522" y="246" width="6" height="9" fill="#f5b942" opacity="0.65"/><rect x="522" y="266" width="6" height="9" fill="#f5b942" opacity="0.39"/><rect x="522" y="286" width="6" height="9" fill="#f5b942" opacity="0.57"/><rect x="522" y="306" width="6" height="9" fill="#f5b942" opacity="0.45"/><rect x="522" y="326" width="6" height="9" fill="#f5b942" opacity="0.81"/><rect x="538" y="266" width="6" height="9" fill="#f5b942" opacity="0.77"/><rect x="538" y="306" width="6" height="9" fill="#f5b942" opacity="0.82"/><rect x="538" y="326" width="6" height="9" fill="#f5b942" opacity="0.74"/><rect x="583" y="230" width="6" height="9" fill="#f5b942" opacity="0.56"/><rect x="583" y="250" width="6" height="9" fill="#f5b942" opacity="0.41"/><rect x="583" y="270" width="6" height="9" fill="#ffd97a" opacity="0.91"/><rect x="583" y="290" width="6" height="9" fill="#f5b942" opacity="0.62"/><rect x="583" y="310" width="6" height="9" fill="#f5b942" opacity="0.62"/><rect x="583" y="330" width="6" height="9" fill="#dc2626" opacity="0.65"/><rect x="599" y="310" width="6" height="9" fill="#f5b942" opacity="0.50"/><rect x="599" y="330" width="6" height="9" fill="#f5b942" opacity="0.53"/><rect x="615" y="230" width="6" height="9" fill="#f5b942" opacity="0.49"/><rect x="615" y="250" width="6" height="9" fill="#f5b942" opacity="0.65"/><rect x="615" y="270" width="6" height="9" fill="#dc2626" opacity="0.76"/><rect x="615" y="290" width="6" height="9" fill="#f5b942" opacity="0.46"/><rect x="615" y="330" width="6" height="9" fill="#dc2626" opacity="0.82"/><rect x="660" y="167" width="6" height="9" fill="#ffd97a" opacity="0.78"/><rect x="660" y="187" width="6" height="9" fill="#ffd97a" opacity="0.87"/><rect x="660" y="207" width="6" height="9" fill="#ffd97a" opacity="0.60"/><rect x="660" y="227" width="6" height="9" fill="#f5b942" opacity="0.60"/><rect x="660" y="267" width="6" height="9" fill="#f5b942" opacity="0.46"/><rect x="660" y="307" width="6" height="9" fill="#f5b942" opacity="0.49"/><rect x="660" y="327" width="6" height="9" fill="#f5b942" opacity="0.41"/><rect x="676" y="167" width="6" height="9" fill="#f5b942" opacity="0.55"/><rect x="676" y="207" width="6" height="9" fill="#f5b942" opacity="0.71"/><rect x="676" y="267" width="6" height="9" fill="#f5b942" opacity="0.48"/><rect x="676" y="287" width="6" height="9" fill="#f5b942" opacity="0.69"/><rect x="676" y="307" width="6" height="9" fill="#f5b942" opacity="0.44"/><rect x="692" y="167" width="6" height="9" fill="#f5b942" opacity="0.65"/><rect x="692" y="187" width="6" height="9" fill="#f5b942" opacity="0.51"/><rect x="692" y="247" width="6" height="9" fill="#f5b942" opacity="0.79"/><rect x="692" y="287" width="6" height="9" fill="#f5b942" opacity="0.82"/><rect x="692" y="307" width="6" height="9" fill="#f5b942" opacity="0.63"/><rect x="708" y="167" width="6" height="9" fill="#f5b942" opacity="0.37"/><rect x="708" y="187" width="6" height="9" fill="#ffd97a" opacity="0.70"/><rect x="708" y="227" width="6" height="9" fill="#ffd97a" opacity="0.71"/><rect x="708" y="247" width="6" height="9" fill="#f5b942" opacity="0.38"/><rect x="708" y="267" width="6" height="9" fill="#f5b942" opacity="0.74"/><rect x="708" y="307" width="6" height="9" fill="#f5b942" opacity="0.80"/><rect x="724" y="167" width="6" height="9" fill="#f5b942" opacity="0.65"/><rect x="724" y="207" width="6" height="9" fill="#f5b942" opacity="0.60"/><rect x="724" y="227" width="6" height="9" fill="#f5b942" opacity="0.71"/><rect x="724" y="287" width="6" height="9" fill="#f5b942" opacity="0.77"/><rect x="724" y="327" width="6" height="9" fill="#f5b942" opacity="0.71"/><rect x="772" y="180" width="6" height="9" fill="#ffd97a" opacity="0.61"/><rect x="772" y="200" width="6" height="9" fill="#f5b942" opacity="0.41"/><rect x="772" y="260" width="6" height="9" fill="#f5b942" opacity="0.46"/><rect x="772" y="280" width="6" height="9" fill="#f5b942" opacity="0.35"/><rect x="788" y="200" width="6" height="9" fill="#f5b942" opacity="0.57"/><rect x="788" y="220" width="6" height="9" fill="#f5b942" opacity="0.78"/><rect x="788" y="240" width="6" height="9" fill="#f5b942" opacity="0.69"/><rect x="788" y="300" width="6" height="9" fill="#f5b942" opacity="0.44"/><rect x="788" y="320" width="6" height="9" fill="#f5b942" opacity="0.41"/><rect x="804" y="180" width="6" height="9" fill="#f5b942" opacity="0.81"/><rect x="804" y="280" width="6" height="9" fill="#ffd97a" opacity="0.67"/><rect x="804" y="300" width="6" height="9" fill="#f5b942" opacity="0.67"/><rect x="804" y="320" width="6" height="9" fill="#f5b942" opacity="0.55"/><rect x="820" y="180" width="6" height="9" fill="#dc2626" opacity="0.72"/><rect x="820" y="240" width="6" height="9" fill="#f5b942" opacity="0.58"/><rect x="820" y="280" width="6" height="9" fill="#f5b942" opacity="0.80"/><rect x="820" y="320" width="6" height="9" fill="#f5b942" opacity="0.84"/><rect x="866" y="200" width="6" height="9" fill="#f5b942" opacity="0.54"/><rect x="866" y="220" width="6" height="9" fill="#f5b942" opacity="0.45"/><rect x="866" y="240" width="6" height="9" fill="#f5b942" opacity="0.78"/><rect x="866" y="320" width="6" height="9" fill="#f5b942" opacity="0.50"/><rect x="882" y="180" width="6" height="9" fill="#dc2626" opacity="0.87"/><rect x="882" y="200" width="6" height="9" fill="#f5b942" opacity="0.45"/><rect x="882" y="240" width="6" height="9" fill="#f5b942" opacity="0.83"/><rect x="882" y="260" width="6" height="9" fill="#f5b942" opacity="0.67"/><rect x="882" y="300" width="6" height="9" fill="#f5b942" opacity="0.58"/><rect x="882" y="320" width="6" height="9" fill="#f5b942" opacity="0.69"/><rect x="898" y="200" width="6" height="9" fill="#f5b942" opacity="0.75"/><rect x="898" y="220" width="6" height="9" fill="#f5b942" opacity="0.56"/><rect x="898" y="240" width="6" height="9" fill="#ffd97a" opacity="0.71"/><rect x="898" y="300" width="6" height="9" fill="#f5b942" opacity="0.41"/><rect x="898" y="320" width="6" height="9" fill="#f5b942" opacity="0.68"/><rect x="947" y="329" width="6" height="9" fill="#f5b942" opacity="0.56"/><rect x="963" y="229" width="6" height="9" fill="#f5b942" opacity="0.73"/><rect x="963" y="269" width="6" height="9" fill="#f5b942" opacity="0.65"/><rect x="979" y="229" width="6" height="9" fill="#f5b942" opacity="0.39"/><rect x="979" y="249" width="6" height="9" fill="#ffd97a" opacity="0.90"/><rect x="979" y="309" width="6" height="9" fill="#ffd97a" opacity="0.75"/><rect x="995" y="229" width="6" height="9" fill="#dc2626" opacity="0.89"/><rect x="995" y="249" width="6" height="9" fill="#dc2626" opacity="0.86"/><rect x="995" y="269" width="6" height="9" fill="#f5b942" opacity="0.74"/><rect x="995" y="289" width="6" height="9" fill="#f5b942" opacity="0.38"/><rect x="995" y="309" width="6" height="9" fill="#f5b942" opacity="0.49"/><rect x="995" y="329" width="6" height="9" fill="#f5b942" opacity="0.39"/><rect x="1041" y="172" width="6" height="9" fill="#f5b942" opacity="0.66"/><rect x="1041" y="192" width="6" height="9" fill="#f5b942" opacity="0.82"/><rect x="1041" y="212" width="6" height="9" fill="#ffd97a" opacity="0.76"/><rect x="1041" y="232" width="6" height="9" fill="#f5b942" opacity="0.66"/><rect x="1041" y="252" width="6" height="9" fill="#f5b942" opacity="0.83"/><rect x="1041" y="272" width="6" height="9" fill="#f5b942" opacity="0.56"/><rect x="1041" y="312" width="6" height="9" fill="#f5b942" opacity="0.67"/><rect x="1057" y="172" width="6" height="9" fill="#f5b942" opacity="0.45"/><rect x="1057" y="192" width="6" height="9" fill="#dc2626" opacity="0.75"/><rect x="1057" y="232" width="6" height="9" fill="#f5b942" opacity="0.82"/><rect x="1057" y="272" width="6" height="9" fill="#f5b942" opacity="0.67"/><rect x="1057" y="292" width="6" height="9" fill="#f5b942" opacity="0.54"/><rect x="1057" y="312" width="6" height="9" fill="#f5b942" opacity="0.60"/><rect x="1073" y="212" width="6" height="9" fill="#dc2626" opacity="0.75"/><rect x="1073" y="232" width="6" height="9" fill="#f5b942" opacity="0.69"/><rect x="1073" y="252" width="6" height="9" fill="#f5b942" opacity="0.59"/><rect x="1073" y="272" width="6" height="9" fill="#f5b942" opacity="0.68"/><rect x="1073" y="312" width="6" height="9" fill="#f5b942" opacity="0.69"/><rect x="1116" y="157" width="6" height="9" fill="#f5b942" opacity="0.57"/><rect x="1116" y="177" width="6" height="9" fill="#f5b942" opacity="0.38"/><rect x="1116" y="217" width="6" height="9" fill="#f5b942" opacity="0.76"/><rect x="1116" y="237" width="6" height="9" fill="#f5b942" opacity="0.36"/><rect x="1116" y="257" width="6" height="9" fill="#f5b942" opacity="0.35"/><rect x="1116" y="277" width="6" height="9" fill="#f5b942" opacity="0.81"/><rect x="1116" y="297" width="6" height="9" fill="#f5b942" opacity="0.59"/><rect x="1132" y="157" width="6" height="9" fill="#f5b942" opacity="0.78"/><rect x="1132" y="177" width="6" height="9" fill="#f5b942" opacity="0.62"/><rect x="1132" y="197" width="6" height="9" fill="#f5b942" opacity="0.55"/><rect x="1132" y="217" width="6" height="9" fill="#f5b942" opacity="0.73"/><rect x="1132" y="237" width="6" height="9" fill="#f5b942" opacity="0.63"/><rect x="1132" y="257" width="6" height="9" fill="#f5b942" opacity="0.39"/><rect x="1132" y="277" width="6" height="9" fill="#ffd97a" opacity="0.67"/><rect x="1132" y="297" width="6" height="9" fill="#dc2626" opacity="0.58"/><rect x="1132" y="317" width="6" height="9" fill="#f5b942" opacity="0.74"/><rect x="1148" y="157" width="6" height="9" fill="#f5b942" opacity="0.63"/><rect x="1148" y="177" width="6" height="9" fill="#f5b942" opacity="0.61"/><rect x="1148" y="197" width="6" height="9" fill="#f5b942" opacity="0.66"/><rect x="1148" y="217" width="6" height="9" fill="#f5b942" opacity="0.57"/><rect x="1148" y="237" width="6" height="9" fill="#f5b942" opacity="0.74"/><rect x="1148" y="317" width="6" height="9" fill="#f5b942" opacity="0.80"/><rect x="1199" y="284" width="6" height="9" fill="#dc2626" opacity="0.51"/><rect x="1199" y="304" width="6" height="9" fill="#f5b942" opacity="0.67"/><rect x="1199" y="324" width="6" height="9" fill="#f5b942" opacity="0.81"/><rect x="1215" y="284" width="6" height="9" fill="#f5b942" opacity="0.41"/><rect x="1215" y="304" width="6" height="9" fill="#f5b942" opacity="0.80"/><rect x="1215" y="324" width="6" height="9" fill="#f5b942" opacity="0.70"/></g></svg>